<?xml version="1.0" encoding="utf-8"?>
<!-- Generator: Adobe Illustrator 26.5.0, SVG Export Plug-In . SVG Version: 6.00 Build 0)  -->
<svg version="1.1" id="Шар_1" xmlns="http://www.w3.org/2000/svg" xmlns:xlink="http://www.w3.org/1999/xlink" x="0px" y="0px"
	 viewBox="0 0 1900 80" style="enable-background:new 0 0 1900 80;" xml:space="preserve">
<style type="text/css">
	.st0{fill:#B00000;}
	.st1{fill:#E50A0A;}
</style>
<g id="Шар_1_00000076590943824024291380000015681774866919499395_">
	<g>
		<polygon class="st0" points="700.3,81.9 0,81.9 0,-8.1 803.4,-8.1 		"/>
	</g>
	<g>
		<polygon class="st1" points="803.4,-8.1 1900,-8.1 1900,81.9 700.3,81.9 		"/>
	</g>
</g>
<g id="Шар_2_00000165220418312421844620000015353918884368962450_">
	<polygon class="st1" points="84,113.4 108.8,105.9 168.8,23.6 148.5,30.2 	"/>
	<polygon class="st1" points="129.7,23.6 104.8,31.1 44.9,113.4 65.3,106.8 	"/>
	<polygon class="st1" points="542,68.5 566.9,61.1 626.9,-21.3 606.5,-14.7 	"/>
	<polygon class="st1" points="601.6,-46.8 576.6,-39.4 516.8,42.9 537.2,36.3 	"/>
	<polygon class="st0" points="1633.5,126.8 1658.4,119.3 1718.3,37 1698.1,43.6 	"/>
	<polygon class="st0" points="1679.2,37 1654.4,44.5 1594.4,126.8 1614.7,120.2 	"/>
	<polygon class="st0" points="1003.2,60.5 1028.2,53.1 1088,-29.2 1067.7,-22.6 	"/>
	<polygon class="st0" points="1048.9,-29.2 1024.1,-21.8 964.1,60.5 984.5,53.9 	"/>
</g>
</svg>
